<?xml version="1.0" encoding="iso-8859-1"?>
<!-- Generator: Adobe Illustrator 19.0.0, SVG Export Plug-In . SVG Version: 6.00 Build 0)  -->
<svg version="1.1" id="Capa_1" xmlns="http://www.w3.org/2000/svg" xmlns:xlink="http://www.w3.org/1999/xlink" x="0px" y="0px"
	 viewBox="0 0 511.998 511.998" style="enable-background:new 0 0 511.998 511.998;" xml:space="preserve">
<g>
	<g>
		<path fill="#FFF" d="M493.889,397.53c-2.059-2.681-5.657-3.65-8.785-2.372c-30.173,12.337-62.052,18.593-94.749,18.593
			c-68.022,0-134.348-27.647-177.599-73.982c0.272-1.796,0.379-3.612,0.312-5.445c-0.566-15.507-13.527-25.711-14.079-26.138
			c-2.533-1.96-6.031-2.095-8.707-0.338c-1.018,0.669-2.048,1.313-3.087,1.935c-3.789-5.181-6.919-9.812-9.908-14.69
			c7.358-3.72,13.179-8.897,16.726-15.181c4.368-7.738,4.762-16.397,1.082-23.758c-1.343-2.687-3.843-4.394-9.883-8.517
			c-12.312-8.405-37.932-25.895-42.793-47.924c-0.097-0.439-0.19-0.879-0.28-1.32c-0.827-4.059-4.787-6.676-8.847-5.851
			c-4.059,0.827-6.678,4.788-5.851,8.847c0.105,0.517,0.215,1.033,0.329,1.552c6.143,27.839,35.079,47.592,48.984,57.085
			c1.999,1.364,4.218,2.879,5.313,3.729c1.25,3.361,0.12,6.593-1.117,8.785c-3.309,5.862-12.397,12.569-27.979,13.811
			c-4.129,0.329-7.209,3.943-6.88,8.072c0.313,3.927,3.596,6.904,7.468,6.904c0.2,0,0.401-0.008,0.604-0.023
			c2.969-0.237,5.838-0.664,8.609-1.237c3.35,5.659,6.719,10.808,10.802,16.493c-27.251,11.151-55.447,10.132-55.988,10.107
			c-4.149-0.187-7.644,3.011-7.833,7.147c-0.19,4.138,3.01,7.646,7.148,7.837c1.785,0.083,42.147,1.681,76.366-18.033
			c2.192,2.694,4.646,6.698,4.813,11.254c0.197,5.391-2.862,10.96-9.09,16.552c-3.083,2.768-3.338,7.51-0.57,10.592
			c1.481,1.649,3.528,2.489,5.583,2.489c1.785,0,3.576-0.633,5.008-1.919c2.862-2.569,5.279-5.21,7.272-7.913
			c46.053,46.5,114.273,74.079,184.074,74.079c25.288,0,50.118-3.531,74.119-10.522c-20.701,21.937-45.316,40.147-72.318,53.374
			c-36.347,17.804-77.164,26.531-118.009,25.274C144.565,492.849,38.14,388.325,31.86,258.917
			c-2.582-53.197,11.292-104.712,40.122-148.979c23.086-35.446,54.196-64.084,90.927-83.926
			c-25.021,41.271-38.127,88.173-38.127,137.163c0,1.563,0.001,3.124,0.008,4.684c0.019,4.131,3.373,7.467,7.499,7.467
			c0.011,0,0.023,0,0.034,0c4.142-0.019,7.485-3.391,7.467-7.533c-0.007-1.537-0.008-3.077-0.008-4.617
			c0-55.064,17.546-107.33,50.742-151.146c2.041-2.694,2.028-6.42-0.032-9.1c-2.059-2.68-5.657-3.651-8.785-2.372
			C131.429,21.116,89.14,56.108,59.413,101.752C28.85,148.678,14.142,203.277,16.878,259.643
			C23.534,396.81,136.335,507.601,273.68,511.869c2.754,0.086,5.505,0.129,8.256,0.129c40.515-0.001,80.735-9.25,116.818-26.925
			c37.176-18.211,70.084-45.336,95.167-78.443C495.961,403.935,495.949,400.21,493.889,397.53z"/>
	</g>
</g>
<g>
	<g>
		<path fill="#FFF" d="M112.234,232.468c-4.142,0-7.5,3.358-7.5,7.5v4.008c0,6.915-5.625,12.54-12.541,12.54c-6.915,0-12.54-5.625-12.54-12.54
			v-8.016c0-6.914,5.625-12.54,12.54-12.54c4.142,0,7.5-3.358,7.5-7.5c0-4.142-3.358-7.5-7.5-7.5
			c-15.186,0-27.54,12.354-27.54,27.54v8.016c0,15.186,12.354,27.54,27.54,27.54c15.186,0,27.541-12.354,27.541-27.54v-4.008
			C119.734,235.826,116.376,232.468,112.234,232.468z"/>
	</g>
</g>
<g>
</g>
<g>
</g>
<g>
</g>
<g>
</g>
<g>
</g>
<g>
</g>
<g>
</g>
<g>
</g>
<g>
</g>
<g>
</g>
<g>
</g>
<g>
</g>
<g>
</g>
<g>
</g>
<g>
</g>
</svg>
