<?xml version="1.0" encoding="iso-8859-1"?>
<!-- Generator: Adobe Illustrator 19.0.0, SVG Export Plug-In . SVG Version: 6.00 Build 0)  -->
<svg version="1.1" id="Capa_1" xmlns="http://www.w3.org/2000/svg" xmlns:xlink="http://www.w3.org/1999/xlink" x="0px" y="0px"
	 viewBox="0 0 512 512" style="enable-background:new 0 0 512 512;" xml:space="preserve">
<g>
	<g>
		<path fill="#FFF" d="M255.997,344.706c-31.177,0-55.598,17.379-55.598,39.565c0.002,21.689,23.258,32.283,38.646,39.294l0.548,0.25
			c5.213,2.376,10.809,3.564,16.405,3.564s11.193-1.188,16.405-3.564l0.548-0.25c15.389-7.01,38.644-17.605,38.644-39.294
			C311.595,362.085,287.174,344.706,255.997,344.706z M266.734,409.915l-0.551,0.251c-6.471,2.95-13.895,2.95-20.368,0l-0.551-0.251
			c-12.603-5.741-29.863-13.604-29.863-25.644c0-13.316,18.592-24.565,40.598-24.565c22.006,0,40.598,11.25,40.598,24.565
			C296.597,396.311,279.337,404.174,266.734,409.915z"/>
	</g>
</g>
<g>
	<g>
		<path fill="#FFF" d="M324.587,434.351c-3.332-2.462-8.027-1.758-10.489,1.574c-6.012,8.134-16.114,12.99-27.022,12.99
			c-6.258,0-12.336-1.62-17.578-4.684c-8.326-4.866-18.67-4.866-26.996,0c-5.242,3.064-11.32,4.684-17.578,4.684
			c-10.908,0-21.009-4.855-27.021-12.988c-2.462-3.331-7.159-4.035-10.489-1.573c-3.331,2.462-4.035,7.159-1.573,10.489
			c8.828,11.942,23.438,19.072,39.083,19.072c8.916,0,17.611-2.329,25.147-6.734c3.657-2.138,8.2-2.137,11.856,0
			c7.536,4.406,16.232,6.734,25.148,6.734c15.646,0,30.257-7.131,39.085-19.075C328.623,441.508,327.918,436.812,324.587,434.351z"
			/>
	</g>
</g>
<g>
	<g>
		<path fill="#FFF" d="M159.279,399.873c-0.237-4.137-3.79-7.296-7.918-7.058c-1.833,0.105-45.296,2.751-80.167,17.623
			c-3.81,1.625-5.582,6.031-3.957,9.841c1.216,2.85,3.988,4.56,6.902,4.56c0.981,0,1.979-0.194,2.939-0.603
			c32.37-13.805,74.593-16.413,75.143-16.445C156.356,407.553,159.516,404.008,159.279,399.873z"/>
	</g>
</g>
<g>
	<g>
		<path fill="#FFF" d="M440.806,410.438c-34.872-14.872-78.334-17.518-80.167-17.623c-4.123-0.234-7.677,2.921-7.916,7.055
			c-0.239,4.134,2.919,7.68,7.054,7.92c0.424,0.025,42.727,2.619,75.145,16.446c0.96,0.409,1.958,0.603,2.939,0.603
			c2.915,0,5.687-1.709,6.902-4.56C446.388,416.468,444.617,412.063,440.806,410.438z"/>
	</g>
</g>
<g>
	<g>
		<path fill="#FFF" d="M507.145,377.253c-1.263-0.477-2.552-0.935-3.851-1.385c4.665-14.5,7.516-29.588,8.395-44.941
			c2.526-44.146-10.824-87.665-37.59-122.54c-7.929-10.332-16.877-22.467-25.472-35.979c14.679-11.63,26.275-27.998,32.972-46.757
			c8.244-23.091,8.493-47.542,0.7-68.847c-7.972-21.796-23.357-37.725-43.322-44.853c-30.549-10.907-65.234,1.308-88.164,30.437
			c-3.402-2.057-6.862-4.014-10.388-5.841c-25.883-13.412-55.078-20.5-84.426-20.5c-34.263,0-66.861,9.414-94.868,26.27
			c-22.932-29.079-57.587-41.262-88.109-30.366C53.057,19.08,37.672,35.009,29.7,56.804c-7.793,21.306-7.544,45.757,0.7,68.847
			c6.698,18.759,18.293,35.127,32.972,46.757c-8.595,13.511-17.543,25.646-25.472,35.978
			C11.135,243.263-2.215,286.782,0.311,330.927c0.878,15.353,3.73,30.441,8.395,44.941c-1.299,0.45-2.588,0.908-3.851,1.385
			c-3.875,1.462-5.832,5.789-4.371,9.665c1.133,3.004,3.987,4.855,7.019,4.855c0.879,0,1.774-0.156,2.646-0.484
			c1.222-0.461,2.472-0.904,3.735-1.339c8.965,21.592,22.093,41.543,38.868,58.664c31.306,31.951,72.711,51.42,116.59,54.819
			c10.603,0.821,21.289,0.741,31.763-0.241c36.427-3.415,73.365-3.415,109.792,0c5.706,0.535,11.474,0.802,17.257,0.802
			c4.833,0,9.679-0.187,14.505-0.561c43.879-3.399,85.285-22.868,116.59-54.819c16.775-17.121,29.903-37.072,38.868-58.664
			c1.263,0.435,2.513,0.878,3.735,1.339c0.872,0.329,1.766,0.484,2.646,0.484c3.031,0,5.885-1.851,7.019-4.855
			C512.977,383.042,511.02,378.715,507.145,377.253z M411.928,23.188c-1.273,0.78-2.541,1.598-3.797,2.496
			c-12.231,8.746-22.264,22.259-28.463,38.238c-5.178-4.712-10.621-9.13-16.292-13.226
			C376.677,34.285,394.284,24.537,411.928,23.188z M148.548,50.605c-5.662,4.077-11.09,8.484-16.263,13.193
			c-6.202-15.925-16.216-29.39-28.417-38.114c-1.255-0.898-2.523-1.716-3.795-2.495C117.684,24.537,135.257,34.25,148.548,50.605z
			 M44.527,120.608c-7.069-19.799-7.332-40.628-0.74-58.651c4.575-12.509,12.094-22.56,21.719-29.339
			c0.532-0.237,1.079-0.458,1.628-0.654c18.226-6.509,42.045,11.585,52.014,39.505c0.483,1.354,0.927,2.722,1.338,4.095
			c-14.155,15.461-25.812,33.513-34.206,53.657c-4.4,10.561-9.566,20.673-15.072,30.241
			C59.41,149.648,50.059,136.101,44.527,120.608z M496.716,330.072c-0.811,14.175-3.459,28.107-7.793,41.494
			c-58.095-14.988-137.533-9.851-141.242-9.6c-4.132,0.28-7.255,3.856-6.976,7.989c0.279,4.132,3.861,7.25,7.989,6.977
			c0.875-0.059,79.177-5.117,134.936,8.771c-8.22,19.259-20.063,37.069-35.096,52.412c-28.764,29.357-66.776,47.243-107.035,50.362
			c-9.752,0.755-19.579,0.681-29.204-0.221c-37.355-3.502-75.236-3.502-112.591,0c-9.626,0.902-19.452,0.977-29.205,0.221
			c-40.258-3.119-78.27-21.005-107.034-50.362c-15.034-15.344-26.876-33.153-35.093-52.414
			c55.758-13.888,134.061-8.829,134.936-8.771c4.144,0.275,7.709-2.845,7.989-6.977c0.28-4.133-2.843-7.709-6.976-7.989
			c-3.709-0.251-83.147-5.388-141.242,9.6c-4.334-13.387-6.982-27.319-7.793-41.494c-2.32-40.557,9.937-80.528,34.514-112.552
			c16.236-21.155,36.628-49.654,50.327-82.529c26.31-63.143,87.493-103.942,155.874-103.942c27.343,0,53.426,6.332,77.525,18.819
			c22.999,11.917,43.278,29.287,58.643,50.231c2.451,3.34,7.144,4.061,10.484,1.61c3.34-2.45,4.061-7.144,1.611-10.483
			c-3.968-5.408-8.246-10.589-12.784-15.532c0.422-1.415,0.875-2.827,1.374-4.221c9.97-27.922,33.788-46.018,52.014-39.506
			c0.549,0.196,1.096,0.417,1.628,0.654c9.624,6.779,17.143,16.83,21.719,29.339c6.592,18.023,6.329,38.853-0.74,58.652
			c-5.531,15.493-14.883,29.04-26.682,38.853c-5.505-9.568-10.671-19.68-15.072-30.24c-1.305-3.132-2.716-6.27-4.195-9.324
			c-1.805-3.729-6.291-5.288-10.019-3.483c-3.729,1.804-5.288,6.29-3.483,10.018c1.357,2.804,2.652,5.683,3.851,8.558
			c13.698,32.875,34.091,61.375,50.327,82.529C486.779,249.544,499.036,289.517,496.716,330.072z"/>
	</g>
</g>
<g>
	<g>
		<path fill="#FFF" d="M203.959,244.772c-1.778-3.741-6.253-5.333-9.993-3.554c-3.741,1.778-5.332,6.252-3.554,9.993
			c1.311,2.759,1.976,5.723,1.976,8.809v16.033c0,11.334-9.222,20.556-20.557,20.556c-11.334,0-20.556-9.222-20.556-20.556V260.02
			c0-11.334,9.222-20.556,20.556-20.556c4.142,0,7.5-3.358,7.5-7.5s-3.358-7.5-7.5-7.5c-19.606,0-35.556,15.95-35.556,35.556v16.033
			c0,19.606,15.95,35.556,35.556,35.556c19.606,0,35.557-15.949,35.557-35.555v-16.033
			C207.388,254.689,206.234,249.559,203.959,244.772z"/>
	</g>
</g>
<g>
	<g>
		<path fill="#FFF" d="M372.296,244.772c-1.778-3.741-6.253-5.333-9.993-3.554c-3.741,1.778-5.332,6.252-3.554,9.993
			c1.311,2.758,1.976,5.722,1.976,8.809v16.033c0,11.334-9.222,20.556-20.556,20.556c-11.335,0-20.557-9.222-20.557-20.556V260.02
			c0-11.334,9.222-20.556,20.557-20.556c4.142,0,7.5-3.358,7.5-7.5s-3.358-7.5-7.5-7.5c-19.606,0-35.557,15.95-35.557,35.556v16.033
			c0,19.606,15.951,35.556,35.557,35.556c19.606,0,35.556-15.949,35.556-35.555v-16.033
			C375.725,254.688,374.572,249.558,372.296,244.772z"/>
	</g>
</g>
<g>
</g>
<g>
</g>
<g>
</g>
<g>
</g>
<g>
</g>
<g>
</g>
<g>
</g>
<g>
</g>
<g>
</g>
<g>
</g>
<g>
</g>
<g>
</g>
<g>
</g>
<g>
</g>
<g>
</g>
</svg>
