<?xml version="1.0" encoding="iso-8859-1"?>
<!-- Generator: Adobe Illustrator 19.0.0, SVG Export Plug-In . SVG Version: 6.00 Build 0)  -->
<svg version="1.1" id="Capa_1" xmlns="http://www.w3.org/2000/svg" xmlns:xlink="http://www.w3.org/1999/xlink" x="0px" y="0px"
	 viewBox="0 0 512.003 512.003" style="enable-background:new 0 0 512.003 512.003;" xml:space="preserve">
<g>
	<g>
		<path fill="#FFF" d="M215.919,228.461c-4.142,0-7.5,3.358-7.5,7.5c0,6.915-5.625,12.541-12.541,12.541c-6.915,0-12.54-5.625-12.54-12.541
			v-8.016c0-6.915,5.625-12.54,12.54-12.54c4.142,0,7.5-3.358,7.5-7.5c0-4.142-3.358-7.5-7.5-7.5
			c-15.186,0-27.54,12.354-27.54,27.54v8.016c0,15.186,12.354,27.541,27.54,27.541c15.187,0,27.541-12.354,27.541-27.541
			C223.419,231.819,220.061,228.461,215.919,228.461z"/>
	</g>
</g>
<g>
	<g>
		<path fill="#FFF" d="M336.161,228.461c-4.142,0-7.5,3.358-7.5,7.5c0,6.915-5.625,12.541-12.54,12.541c-6.915,0-12.541-5.625-12.541-12.541
			v-8.016c0-6.915,5.625-12.54,12.541-12.54c4.142,0,7.5-3.358,7.5-7.5c0-4.142-3.358-7.5-7.5-7.5
			c-15.186,0-27.541,12.354-27.541,27.54v8.016c0,15.186,12.354,27.541,27.541,27.541c15.186,0,27.54-12.354,27.54-27.541
			C343.661,231.819,340.303,228.461,336.161,228.461z"/>
	</g>
</g>
<g>
	<g>
		<path fill="#FFF" d="M282.705,273.037c-3.873-1.468-8.203,0.484-9.67,4.357c-2.534,6.692-9.379,11.188-17.034,11.188
			c-7.655,0-14.5-4.496-17.034-11.188c-1.467-3.873-5.795-5.825-9.67-4.357c-3.874,1.467-5.825,5.796-4.358,9.67
			c4.727,12.486,17.209,20.876,31.061,20.876s26.334-8.39,31.063-20.876C288.53,278.833,286.579,274.504,282.705,273.037z"/>
	</g>
</g>
<g>
	<g>
		<path fill="#FFF" d="M287.429,356.778c-0.736-4.076-4.637-6.784-8.713-6.049c-7.292,1.316-14.934,1.983-22.716,1.983
			c-7.782,0-15.425-0.667-22.716-1.983c-4.076-0.732-7.977,1.973-8.713,6.049c-0.736,4.076,1.973,7.978,6.049,8.713
			c8.168,1.475,16.708,2.222,25.38,2.222s17.212-0.747,25.38-2.222C285.456,364.756,288.165,360.854,287.429,356.778z"/>
	</g>
</g>
<g>
	<g>
		<path fill="#FFF" d="M316.756,320.168l-6.01-11.522c-1.917-3.673-6.446-5.098-10.119-3.18c-2.992,1.561-4.49,4.857-3.907,8.011
			c-10.229,4.524-25.047,7.17-40.721,7.17s-30.491-2.647-40.721-7.17c0.583-3.154-0.915-6.45-3.907-8.011
			c-3.672-1.917-8.203-0.492-10.119,3.18l-6.012,11.522c-1.916,3.673-0.492,8.203,3.18,10.119c1.108,0.578,2.294,0.853,3.463,0.853
			c2.705,0,5.318-1.469,6.656-4.032l0.092-0.177c12.282,5.568,29.197,8.717,47.367,8.717s35.085-3.149,47.367-8.717l0.092,0.177
			c1.338,2.564,3.951,4.032,6.656,4.032c1.169,0,2.355-0.274,3.463-0.853C317.248,328.371,318.672,323.841,316.756,320.168z"/>
	</g>
</g>
<g>
	<g>
		<path fill="#FFF" d="M506.946,248.912l-78.736-27.165l62.347-55.228c2.395-2.122,3.18-5.529,1.956-8.484c-1.224-2.956-4.192-4.811-7.382-4.616
			l-83.138,5.034l36.466-74.883c1.4-2.876,0.822-6.325-1.44-8.587c-2.263-2.263-5.711-2.839-8.587-1.44l-74.883,36.466l5.034-83.138
			c0.193-3.193-1.661-6.158-4.616-7.382c-2.956-1.224-6.363-0.439-8.484,1.956l-55.228,62.347L263.09,5.056
			c-1.044-3.025-3.891-5.054-7.09-5.054c-3.199,0-6.046,2.029-7.09,5.054l-27.165,78.736l-55.228-62.347
			c-2.122-2.395-5.528-3.181-8.484-1.956s-4.81,4.189-4.616,7.382l5.034,83.138L83.568,73.543c-2.876-1.4-6.326-0.823-8.587,1.44
			c-2.262,2.262-2.84,5.71-1.44,8.587l36.466,74.883l-83.138-5.034c-3.188-0.193-6.158,1.66-7.382,4.616s-0.439,6.363,1.956,8.484
			l62.347,55.228L5.054,248.912C2.029,249.956,0,252.803,0,256.002c0,3.199,2.029,6.047,5.054,7.09l78.736,27.165l-62.346,55.227
			c-2.395,2.121-3.18,5.528-1.956,8.484c1.166,2.814,3.91,4.63,6.927,4.63c0.151,0,0.303-0.005,0.456-0.014l83.138-5.034
			l-36.466,74.884c-1.4,2.876-0.822,6.324,1.44,8.587c1.439,1.438,3.358,2.196,5.305,2.196c1.113,0,2.235-0.247,3.282-0.757
			l74.883-36.466l-5.034,83.138c-0.193,3.193,1.661,6.158,4.616,7.382c0.93,0.386,1.903,0.571,2.868,0.571
			c2.103,0,4.162-0.885,5.616-2.527l55.228-62.347l27.165,78.736c1.043,3.024,3.891,5.054,7.09,5.054
			c3.199,0,6.046-2.029,7.09-5.054l27.165-78.736l55.228,62.347c1.455,1.643,3.513,2.527,5.616,2.527
			c0.964,0,1.939-0.186,2.868-0.571c2.956-1.224,4.81-4.188,4.616-7.382l-5.034-83.138l74.883,36.466
			c1.046,0.51,2.168,0.757,3.282,0.757c1.946,0,3.866-0.758,5.305-2.196c2.262-2.263,2.84-5.711,1.44-8.587l-36.466-74.883
			l83.138,5.034c0.152,0.009,0.304,0.014,0.456,0.014c3.017,0,5.761-1.815,6.927-4.63c1.224-2.956,0.439-6.363-1.956-8.484
			l-62.346-55.228l78.735-27.165c3.024-1.043,5.054-3.891,5.054-7.09C512.003,252.803,509.971,249.956,506.946,248.912z
			 M464.339,169.706l-46.646,41.319c-3.689-13.245-8.965-25.833-15.61-37.55L464.339,169.706z M415.455,96.547l-27.321,56.104
			c-8.398-10.714-18.069-20.384-28.783-28.783L415.455,96.547z M342.296,47.663l-3.769,62.256
			c-11.717-6.645-24.305-11.921-37.55-15.61L342.296,47.663z M256,30.498l20.327,58.916C269.662,88.606,262.88,88.18,256,88.18
			s-13.661,0.426-20.327,1.234L256,30.498z M211.023,94.309c-13.245,3.689-25.833,8.965-37.55,15.61l-3.769-62.256L211.023,94.309z
			 M96.544,96.546l56.105,27.322c-10.714,8.398-20.384,18.069-28.783,28.783L96.544,96.546z M47.661,169.706l62.256,3.769
			c-6.645,11.716-11.921,24.305-15.61,37.55L47.661,169.706z M30.496,256.002l58.915-20.327c-0.808,6.665-1.234,13.447-1.234,20.327
			s0.426,13.662,1.234,20.327L30.496,256.002z M47.662,342.299l46.645-41.319c3.689,13.245,8.965,25.833,15.61,37.549
			L47.662,342.299z M96.545,415.457l27.321-56.104c8.399,10.714,18.069,20.384,28.783,28.783L96.545,415.457z M169.703,464.341
			l3.77-62.256c11.717,6.645,24.305,11.921,37.55,15.61L169.703,464.341z M256,481.506l-20.327-58.916
			c6.665,0.808,13.447,1.234,20.327,1.234s13.661-0.426,20.327-1.234L256,481.506z M300.977,417.695
			c13.245-3.689,25.834-8.965,37.55-15.61l3.77,62.256L300.977,417.695z M415.455,415.457l-56.104-27.321
			c10.714-8.398,20.384-18.069,28.783-28.783L415.455,415.457z M256,408.824c-84.267,0-152.823-68.556-152.823-152.822
			S171.733,103.179,256,103.179s152.823,68.556,152.823,152.823S340.267,408.824,256,408.824z M464.339,342.299l-62.256-3.77
			c6.645-11.717,11.921-24.305,15.61-37.55L464.339,342.299z M422.589,276.329c0.808-6.665,1.234-13.447,1.234-20.327
			s-0.426-13.661-1.234-20.327l58.915,20.327L422.589,276.329z"/>
	</g>
</g>
<g>
</g>
<g>
</g>
<g>
</g>
<g>
</g>
<g>
</g>
<g>
</g>
<g>
</g>
<g>
</g>
<g>
</g>
<g>
</g>
<g>
</g>
<g>
</g>
<g>
</g>
<g>
</g>
<g>
</g>
</svg>
